# xmcd CD database file
#
# Track frame offsets:
#	180
#	19731
#	37430
#	56294
#	72934
#	89488
#	106750
#	119024
#	129770
#	143603
#	161261
#	175936
#	194363
#	213981
#	231512
#	245129
#	261350
#
# Disc length: 3769 seconds
#
# Revision: 0
# Processed by: cddbd v1.5.2PL0 Copyright (c) Steve Scherf et al.
# Submitted via: CDex 1.51
#
DISCID=f70eb711
DTITLE=Various Artist - Hamilton Music Scene '96 - Country
DYEAR=1996
DGENRE=Country
TTITLE0=Lisa Logan/Most Every Night
TTITLE1=J.P. Riemens/Painting Picture
TTITLE2=Stewart Hooey/Please Eloise
TTITLE3=The Baladins/Blue Skys
TTITLE4=Shawn Brush/Jesus Loves You
TTITLE5=Shawn Nelson/Missing You
TTITLE6=Danny Boy/New Life
TTITLE7=Robert W. Tyler/Fire In The Sky
TTITLE8=The Big Trouble Band/Friday Night (ooo-eee-oh-oh)
TTITLE9=Brian Morton/Mutiny
TTITLE10=St. John's Roadhouse Band/Please Come Back To These Arms
TTITLE11=Ron Eliot/Now That Your Gone
TTITLE12=Mike Bernard/Retired
TTITLE13=Timothy Glover and Sharon Gilmour/No More Excuses
TTITLE14=Whitey and Larua Somers/Gotta Move On
TTITLE15=Farrel Boyce and Friends/Whatever Happened to That Golden Glow
TTITLE16=Leonard Shea/Yesterday
EXTD=YEAR: 1996
EXTT0=
EXTT1=
EXTT2=
EXTT3=
EXTT4=
EXTT5=
EXTT6=
EXTT7=
EXTT8=
EXTT9=
EXTT10=
EXTT11=
EXTT12=
EXTT13=
EXTT14=
EXTT15=
EXTT16=
PLAYORDER=
